<svg width="34" height="34" viewBox="0 0 34 34" fill="none" xmlns="http://www.w3.org/2000/svg">
<path d="M16.9997 15.2285C17.2815 15.2285 17.5517 15.3405 17.751 15.5397C17.9502 15.739 18.0622 16.0092 18.0622 16.291V23.3743C18.0622 23.6561 17.9502 23.9264 17.751 24.1256C17.5517 24.3249 17.2815 24.4368 16.9997 24.4368C16.7179 24.4368 16.4476 24.3249 16.2484 24.1256C16.0491 23.9264 15.9372 23.6561 15.9372 23.3743V16.291C15.9372 16.0092 16.0491 15.739 16.2484 15.5397C16.4476 15.3405 16.7179 15.2285 16.9997 15.2285ZM16.9997 12.7493C17.3754 12.7493 17.7357 12.6001 18.0014 12.3344C18.2671 12.0687 18.4163 11.7084 18.4163 11.3327C18.4163 10.957 18.2671 10.5966 18.0014 10.3309C17.7357 10.0653 17.3754 9.91602 16.9997 9.91602C16.624 9.91602 16.2636 10.0653 15.9979 10.3309C15.7323 10.5966 15.583 10.957 15.583 11.3327C15.583 11.7084 15.7323 12.0687 15.9979 12.3344C16.2636 12.6001 16.624 12.7493 16.9997 12.7493Z" fill="#B32020"/>
<path fill-rule="evenodd" clip-rule="evenodd" d="M4.60449 16.9993C4.60449 13.7118 5.91048 10.5588 8.23515 8.23417C10.5598 5.9095 13.7127 4.60352 17.0003 4.60352C20.2879 4.60352 23.4408 5.9095 25.7655 8.23417C28.0902 10.5588 29.3962 13.7118 29.3962 16.9993C29.3962 20.2869 28.0902 23.4399 25.7655 25.7645C23.4408 28.0892 20.2879 29.3952 17.0003 29.3952C13.7127 29.3952 10.5598 28.0892 8.23515 25.7645C5.91048 23.4399 4.60449 20.2869 4.60449 16.9993ZM17.0003 6.72852C15.6515 6.72852 14.316 6.99418 13.0698 7.51034C11.8237 8.02649 10.6915 8.78304 9.73775 9.73677C8.78401 10.6905 8.02747 11.8228 7.51131 13.0689C6.99515 14.315 6.72949 15.6506 6.72949 16.9993C6.72949 18.3481 6.99515 19.6837 7.51131 20.9298C8.02747 22.1759 8.78401 23.3082 9.73775 24.2619C10.6915 25.2157 11.8237 25.9722 13.0698 26.4884C14.316 27.0045 15.6515 27.2702 17.0003 27.2702C19.7243 27.2702 22.3367 26.1881 24.2629 24.2619C26.1891 22.3358 27.2712 19.7233 27.2712 16.9993C27.2712 14.2754 26.1891 11.6629 24.2629 9.73677C22.3367 7.81062 19.7243 6.72852 17.0003 6.72852Z" fill="#B32020"/>
</svg>
