<svg width="48" height="49" viewBox="0 0 48 49" fill="none" xmlns="http://www.w3.org/2000/svg">
<rect x="0.5" y="1" width="47" height="47" rx="23.5" fill="white"/>
<rect x="0.5" y="1" width="47" height="47" rx="23.5" stroke="#DDDDDD"/>
<g clip-path="url(#clip0_1830_1170)">
<path d="M24 24.5C24.9889 24.5 25.9556 24.2068 26.7779 23.6573C27.6001 23.1079 28.241 22.327 28.6194 21.4134C28.9978 20.4998 29.0969 19.4945 28.9039 18.5246C28.711 17.5546 28.2348 16.6637 27.5355 15.9645C26.8363 15.2652 25.9454 14.789 24.9755 14.5961C24.0055 14.4031 23.0002 14.5022 22.0866 14.8806C21.173 15.259 20.3921 15.8999 19.8427 16.7222C19.2932 17.5444 19 18.5111 19 19.5C19.0013 20.8257 19.5285 22.0967 20.4659 23.0341C21.4033 23.9715 22.6743 24.4987 24 24.5ZM24 16.1667C24.6593 16.1667 25.3037 16.3622 25.8519 16.7284C26.4001 17.0947 26.8273 17.6153 27.0796 18.2244C27.3319 18.8335 27.3979 19.5037 27.2693 20.1503C27.1407 20.7969 26.8232 21.3909 26.357 21.857C25.8908 22.3232 25.2969 22.6407 24.6503 22.7693C24.0037 22.8979 23.3335 22.8319 22.7244 22.5796C22.1153 22.3273 21.5947 21.9001 21.2284 21.3519C20.8622 20.8037 20.6667 20.1593 20.6667 19.5C20.6667 18.6159 21.0179 17.7681 21.643 17.143C22.2681 16.5179 23.1159 16.1667 24 16.1667Z" fill="#BBBBBB"/>
<path d="M24 26.1667C22.0116 26.169 20.1052 26.9598 18.6991 28.3659C17.2931 29.7719 16.5022 31.6783 16.5 33.6667C16.5 33.8878 16.5878 34.0997 16.7441 34.256C16.9004 34.4123 17.1123 34.5001 17.3333 34.5001C17.5543 34.5001 17.7663 34.4123 17.9226 34.256C18.0789 34.0997 18.1667 33.8878 18.1667 33.6667C18.1667 32.1197 18.7812 30.6359 19.8752 29.542C20.9692 28.448 22.4529 27.8334 24 27.8334C25.5471 27.8334 27.0308 28.448 28.1248 29.542C29.2188 30.6359 29.8333 32.1197 29.8333 33.6667C29.8333 33.8878 29.9211 34.0997 30.0774 34.256C30.2337 34.4123 30.4457 34.5001 30.6667 34.5001C30.8877 34.5001 31.0996 34.4123 31.2559 34.256C31.4122 34.0997 31.5 33.8878 31.5 33.6667C31.4978 31.6783 30.7069 29.7719 29.3009 28.3659C27.8948 26.9598 25.9884 26.169 24 26.1667Z" fill="#BBBBBB"/>
</g>
<defs>
<clipPath id="clip0_1830_1170">
<rect width="20" height="20" fill="white" transform="translate(14 14.5)"/>
</clipPath>
</defs>
</svg>
